<svg xmlns="http://www.w3.org/2000/svg" width="26" height="26" fill="none" viewBox="0 0 26 26"><path fill="#fff" d="m16.494 16.694.494-.49-1.147-1.154-.492.491Zm2.15-.697 2.07 1.126.775-1.428-2.069-1.125Zm2.468 3.362-1.538 1.53 1.145 1.152 1.538-1.53Zm-2.476 2.022c-1.571.148-5.634.017-10.034-4.358l-1.146 1.152c4.801 4.774 9.372 5.008 11.332 4.825ZM8.602 17.023c-4.194-4.17-4.89-7.677-4.976-9.2l-1.623.093c.109 1.915.97 5.802 5.453 10.259Zm1.49-6.695.31-.31L9.26 8.867l-.311.309Zm.557-4.248L9.285 4.256l-1.302.975 1.365 1.823ZM4.69 3.86l-1.7 1.69L4.134 6.7l1.7-1.69Zm4.83 5.893c-.575-.576-.575-.576-.575-.574h-.002l-.003.004a1 1 0 0 0-.138.17c-.058.087-.122.2-.176.345a2.3 2.3 0 0 0-.095 1.16c.145.937.79 2.175 2.444 3.82l1.146-1.153c-1.548-1.538-1.917-2.474-1.985-2.916-.032-.21.001-.315.01-.338q.01-.022 0-.007a.3.3 0 0 1-.033.042l-.01.011-.01.01Zm1.455 4.925c1.654 1.644 2.899 2.285 3.837 2.428.48.074.866.016 1.16-.094q.248-.09.455-.255l.054-.05.008-.006.003-.003.001-.002s.001-.001-.572-.578c-.574-.576-.57-.577-.57-.577l.001-.002.002-.002.007-.006.01-.01.042-.033q.015-.01-.008.002c-.027.01-.133.043-.346.011-.449-.07-1.391-.438-2.938-1.976ZM9.285 4.255C8.18 2.782 6.009 2.548 4.69 3.859L5.835 5.01c.577-.573 1.6-.513 2.148.22Zm-5.658 3.57c-.021-.375.15-.767.508-1.123L2.988 5.55c-.582.578-1.04 1.397-.985 2.366ZM19.574 20.89c-.297.296-.618.463-.937.492l.15 1.618c.797-.075 1.448-.476 1.933-.958Zm-9.172-10.872c1.068-1.06 1.147-2.736.249-3.936l-1.301.973c.436.584.371 1.35-.093 1.813Zm10.314 7.106c.885.48 1.022 1.614.397 2.236l1.147 1.152c1.451-1.445 1.004-3.853-.77-4.816Zm-3.728-.92c.416-.414 1.086-.516 1.658-.206l.775-1.426c-1.174-.64-2.63-.463-3.58.48Z"/></svg>