<svg xmlns="http://www.w3.org/2000/svg" width="18" height="17" fill="none" viewBox="0 0 18 17"><path fill="#ffab00" d="m8.56 13.7-4.15 2.5a.9.9 0 0 1-.575.15.97.97 0 0 1-.525-.2 1.2 1.2 0 0 1-.35-.437.88.88 0 0 1-.05-.588l1.1-4.725L.337 7.225a.96.96 0 0 1-.312-.513A1 1 0 0 1 .06 6.15q.099-.274.3-.45.2-.175.55-.225l4.85-.425L7.636.6q.125-.3.388-.45T8.56 0q.275 0 .537.15.263.15.388.45l1.875 4.45 4.85.425q.35.05.55.225t.3.45a1 1 0 0 1 .038.563.95.95 0 0 1-.313.512L13.11 10.4l1.1 4.725a.88.88 0 0 1-.05.588 1.2 1.2 0 0 1-.35.437 1 1 0 0 1-.525.2.9.9 0 0 1-.575-.15Z"/></svg>